<svg width="193" height="127" viewBox="0 0 193 127" fill="none" xmlns="http://www.w3.org/2000/svg">
<path d="M148.298 29.3426C137.026 11.7068 117.256 0 94.749 0C59.6663 0 31.249 28.4362 31.249 63.5C31.249 69.9576 32.212 76.1887 34.0058 82.0798L40.9543 78.8699C39.5571 73.9795 38.8018 68.8247 38.8018 63.5C38.8018 32.6469 63.8959 7.55278 94.749 7.55278C114.16 7.55278 131.304 17.5036 141.35 32.5525L148.298 29.3426ZM145.56 40.0675C148.865 47.2049 150.715 55.1353 150.715 63.5C150.715 94.3531 125.621 119.447 94.7679 119.447C72.2795 119.447 52.85 106.117 43.9566 86.9325L37.0835 90.1047C47.1476 111.894 69.1829 127 94.7679 127C129.851 127 158.268 98.5638 158.268 63.5C158.268 54.0024 156.172 44.9768 152.433 36.8953L145.56 40.0675Z" fill="white"/>
<path d="M0 107.06C15.3888 98.2426 31.0797 90.1045 46.9028 82.193C54.7765 78.1711 62.7636 74.4136 70.694 70.5239L94.6741 59.2325L118.824 48.3187C126.924 44.8067 134.987 41.1625 143.144 37.7826C159.42 30.8907 175.81 24.2254 192.501 18.2587C177.113 27.0954 161.422 35.2335 145.618 43.1451C137.744 47.1669 129.757 50.9244 121.826 54.8141L97.8463 66.0866L73.6963 77.0004C65.5959 80.5125 57.5333 84.1378 49.3763 87.5365C33.0812 94.4096 16.7105 101.075 0 107.06Z" fill="white"/>
<path d="M182.08 62.8204C186.47 62.8204 190.029 59.2613 190.029 54.8711C190.029 50.4808 186.47 46.9218 182.08 46.9218C177.689 46.9218 174.13 50.4808 174.13 54.8711C174.13 59.2613 177.689 62.8204 182.08 62.8204Z" fill="white"/>
<path d="M15.1049 36.8766C18.2125 36.8766 20.7317 34.3574 20.7317 31.2497C20.7317 28.1421 18.2125 25.6229 15.1049 25.6229C11.9972 25.6229 9.47803 28.1421 9.47803 31.2497C9.47803 34.3574 11.9972 36.8766 15.1049 36.8766Z" fill="white"/>
</svg>
