<svg width="17" height="21" viewBox="0 0 17 21" fill="none" xmlns="http://www.w3.org/2000/svg">
<path fill-rule="evenodd" clip-rule="evenodd" d="M12.9765 15.2855C16.1041 12.9545 17.142 8.62477 15.2464 5.08079C13.158 1.1764 8.29984 -0.295737 4.39545 1.79268C0.491062 3.8811 -0.981075 8.73923 1.10734 12.6436C3.03568 16.2487 7.32542 17.7802 11.0453 16.3497L13.1071 20.2043C13.3943 20.7411 14.0623 20.9436 14.5991 20.6564C15.136 20.3692 15.3384 19.7012 15.0512 19.1644L12.9765 15.2855ZM14.062 5.71432C15.8005 8.96457 14.575 13.0088 11.3248 14.7473C8.0745 16.4858 4.0303 15.2603 2.29177 12.0101C0.553244 8.75983 1.77874 4.71562 5.02899 2.9771C8.27924 1.23857 12.3234 2.46407 14.062 5.71432Z" fill="white"/>
</svg>
